HIERARCHY
ROOT Pelvis
{
	OFFSET 0.000000 0.000000 0.000000
	CHANNELS 6 Xposition Yposition Zposition Xrotation Yrotation Zrotation
	JOINT LeftUpLeg_virtual
	{
		OFFSET 0.000000 0.000000 0.000000
		CHANNELS 3 Xrotation Yrotation Zrotation
		JOINT LeftUpLeg
		{
			OFFSET 8.479700 -4.795502 -0.379100
			CHANNELS 3 Xrotation Yrotation Zrotation
			JOINT LeftLeg
			{
				OFFSET 0.024144 -32.555107 0.112900
				CHANNELS 3 Xrotation Yrotation Zrotation
				JOINT LeftFoot
				{
					OFFSET -0.024144 -32.638630 -3.012600
					CHANNELS 3 Xrotation Yrotation Zrotation
					JOINT LeftToeBase
					{
						OFFSET 0.970200 -13.225400 11.864200
						CHANNELS 3 Xrotation Yrotation Zrotation
						End Site
						{
							OFFSET 0 0 0
						}
					}
				}
			}
		}
	}
	JOINT RightUpLeg_virtual
	{
		OFFSET 0.000000 0.000000 0.000000
		CHANNELS 3 Xrotation Yrotation Zrotation
		JOINT RightUpLeg
		{
			OFFSET -8.479700 -4.795502 -0.379100
			CHANNELS 3 Xrotation Yrotation Zrotation
			JOINT RightLeg
			{
				OFFSET -0.023144 -32.555092 0.112900
				CHANNELS 3 Xrotation Yrotation Zrotation
				JOINT RightFoot
				{
					OFFSET 0.023144 -32.638641 -3.012700
					CHANNELS 3 Xrotation Yrotation Zrotation
					JOINT RightToeBase
					{
						OFFSET -0.970200 -13.225400 11.864200
						CHANNELS 3 Xrotation Yrotation Zrotation
						End Site
						{
							OFFSET 0 0 0
						}
					}
				}
			}
		}
	}
	JOINT Hips_virtual
	{
		OFFSET 0.000000 0.000000 0.000000
		CHANNELS 3 Xrotation Yrotation Zrotation
		JOINT Hips
		{
			OFFSET -0.000000 -0.000000 -0.000000
			CHANNELS 3 Xrotation Yrotation Zrotation
			JOINT Spine
			{
				OFFSET 0.000000 7.722000 1.166200
				CHANNELS 3 Xrotation Yrotation Zrotation
				JOINT Spine1
				{
					OFFSET 0.000000 12.024101 0.248800
					CHANNELS 3 Xrotation Yrotation Zrotation
					JOINT Spine2
					{
						OFFSET 0.000000 11.502998 -0.491200
						CHANNELS 3 Xrotation Yrotation Zrotation
						JOINT Neck_virtual
						{
							OFFSET 0.000000 0.000000 0.000000
							CHANNELS 3 Xrotation Yrotation Zrotation
							JOINT Neck
							{
								OFFSET 0.000000 18.430702 -3.123100
								CHANNELS 3 Xrotation Yrotation Zrotation
								JOINT Head
								{
									OFFSET 0.000000 9.051102 1.034000
									CHANNELS 3 Xrotation Yrotation Zrotation
									End Site
									{
										OFFSET 0 0 0
									}
								}
							}
						}
						JOINT LeftShoulder_virtual
						{
							OFFSET 0.000000 0.000000 0.000000
							CHANNELS 3 Xrotation Yrotation Zrotation
							JOINT LeftShoulder
							{
								OFFSET 6.197800 13.665199 -4.064700
								CHANNELS 3 Xrotation Yrotation Zrotation
								JOINT LeftArm
								{
									OFFSET 7.778100 -0.187103 -1.709300
									CHANNELS 3 Xrotation Yrotation Zrotation
									JOINT LeftForeArm
									{
										OFFSET 22.049376 0.000000 0.000000
										CHANNELS 3 Xrotation Yrotation Zrotation
										JOINT LeftHand
										{
											OFFSET 23.009392 0.000000 0.000000
											CHANNELS 3 Xrotation Yrotation Zrotation
											End Site
											{
												OFFSET 0 0 0
											}
										}
									}
								}
							}
						}
						JOINT RightShoulder_virtual
						{
							OFFSET 0.000000 0.000000 0.000000
							CHANNELS 3 Xrotation Yrotation Zrotation
							JOINT RightShoulder
							{
								OFFSET -6.197800 13.665199 -4.064700
								CHANNELS 3 Xrotation Yrotation Zrotation
								JOINT RightArm
								{
									OFFSET -7.778100 -0.187103 -1.709300
									CHANNELS 3 Xrotation Yrotation Zrotation
									JOINT RightForeArm
									{
										OFFSET -22.049376 0.000000 0.000000
										CHANNELS 3 Xrotation Yrotation Zrotation
										JOINT RightHand
										{
											OFFSET -23.009392 0.000000 0.000000
											CHANNELS 3 Xrotation Yrotation Zrotation
											End Site
											{
												OFFSET 0 0 0
											}
										}
									}
								}
							}
						}
					}
				}
			}
		}
	}
}
MOTION
Frames: 12
Frame Time: 0.03333333
-0.035286 81.530060 0.563976 0.000000 0.000000 0.000000 1.893934 -2.201431 -0.170043 -7.143491 -4.926049 9.600313 13.510083 0.057570 -1.554751 -5.996168 14.459207 -8.508623 0.000000 0.000000 0.000000 1.893934 -2.201431 -0.170043 -6.697514 -4.995243 -8.906203 14.678645 -0.320877 0.083129 -8.523814 -10.764242 7.681886 0.000000 0.000000 0.000000 1.893934 -2.201431 -0.170043 0.000000 0.000000 0.000000 2.070900 0.288501 0.926132 3.430435 -0.015269 0.185037 0.000000 0.000000 0.000000 3.430504 0.005499 0.178976 -3.527217 -0.011364 -0.032778 0.000000 0.000000 0.000000 3.430504 0.005499 0.178976 0.742832 8.952357 -13.053721 10.737610 -6.254788 -54.002611 -0.000002 -32.994243 0.000008 0.000000 0.000000 0.000000 3.430504 0.005499 0.178976 1.078067 -8.352865 11.371666 3.407869 18.890951 61.317333 -0.000005 23.538778 0.000022 0.000000 0.000000 0.000000 
-0.149362 81.556931 0.506571 0.000000 0.000000 0.000000 1.872879 -2.362017 0.100341 -8.675808 -5.340089 9.352397 16.065713 -0.041219 -1.557503 -5.281456 14.597576 -9.066973 0.000000 0.000000 0.000000 1.872879 -2.362017 0.100341 -6.932273 -4.980061 -9.115765 14.968785 -0.194379 0.072752 -8.629486 -10.688033 7.587509 0.000000 0.000000 0.000000 1.872879 -2.362017 0.100341 0.000000 0.000000 0.000000 2.291588 -0.003567 0.717698 3.107405 -0.084774 0.120758 0.000000 0.000000 0.000000 3.107843 -0.065907 0.115675 -3.226255 0.031549 -0.023639 0.000000 0.000000 0.000000 3.107843 -0.065907 0.115675 0.736512 8.806727 -13.031567 10.933041 -6.745929 -54.051047 -0.000001 -32.945288 -0.000009 0.000000 0.000000 0.000000 3.107843 -0.065907 0.115675 1.091566 -8.197192 11.485085 3.504176 18.923106 61.185989 -0.000001 23.701513 -0.000000 0.000000 0.000000 0.000000 
-0.368918 81.566605 0.448393 0.000000 0.000000 0.000000 1.851923 -2.500955 0.387091 -10.735428 -5.057103 9.350923 19.125409 -0.157732 -1.571949 -4.029895 13.850836 -9.923656 0.000000 0.000000 0.000000 1.851923 -2.500955 0.387091 -7.296590 -4.931719 -9.266292 15.562815 -0.068517 0.072449 -8.922699 -10.649213 7.396392 0.000000 0.000000 0.000000 1.851923 -2.500955 0.387091 0.000000 0.000000 0.000000 2.559235 -0.359514 0.499705 2.747828 -0.169164 0.053064 0.000000 0.000000 0.000000 2.748702 -0.152292 0.049085 -2.889075 0.082213 -0.012975 0.000000 0.000000 0.000000 2.748702 -0.152292 0.049085 0.729839 8.654329 -13.018117 11.156660 -7.294851 -54.080659 -0.000004 -32.921041 -0.000000 0.000000 0.000000 0.000000 2.748702 -0.152292 0.049085 1.096791 -8.002338 11.568714 3.614133 18.945283 61.044645 0.000002 23.957206 -0.000002 0.000000 0.000000 0.000000 
-0.613135 81.496567 0.389341 0.000000 0.000000 0.000000 1.831469 -2.635551 0.621801 -15.048232 -4.440306 8.750661 25.922026 0.487469 -1.613839 -3.196058 12.468966 -8.663926 0.000000 0.000000 0.000000 1.831469 -2.635551 0.621801 -7.943528 -4.808785 -9.369856 16.765799 0.094590 0.082686 -9.534772 -10.683270 7.171724 0.000000 0.000000 0.000000 1.831469 -2.635551 0.621801 0.000000 0.000000 0.000000 2.850034 -0.741887 0.332533 2.373875 -0.260962 -0.016101 0.000000 0.000000 0.000000 2.375219 -0.246129 -0.018902 -2.534350 0.136653 -0.001104 0.000000 0.000000 0.000000 2.375219 -0.246129 -0.018902 0.723120 8.496001 -13.005182 11.389998 -7.878149 -54.103977 -0.000004 -32.909026 -0.000016 0.000000 0.000000 0.000000 2.375219 -0.246129 -0.018902 1.096978 -7.781049 11.642711 3.743082 18.979045 60.878856 0.000007 24.271414 -0.000015 0.000000 0.000000 0.000000 
-0.885718 81.380539 0.334419 0.000000 0.000000 0.000000 1.811500 -2.779172 0.836621 -19.332026 -3.230091 8.278380 32.043300 0.387613 -1.624536 -0.532691 10.407253 -8.582874 0.000000 0.000000 0.000000 1.811500 -2.779172 0.836621 -8.737628 -4.601729 -9.434090 18.306809 0.300264 0.103748 -10.333354 -10.810385 6.902623 0.000000 0.000000 0.000000 1.811500 -2.779172 0.836621 0.000000 0.000000 0.000000 3.159667 -1.133006 0.175359 1.995517 -0.356287 -0.085877 0.000000 0.000000 0.000000 1.997350 -0.343515 -0.087452 -2.167620 0.192986 0.012224 0.000000 0.000000 0.000000 1.997350 -0.343515 -0.087452 0.716351 8.326971 -12.991419 11.631051 -8.501350 -54.118744 -0.000003 -32.909450 -0.000017 0.000000 0.000000 0.000000 1.997350 -0.343515 -0.087452 1.093916 -7.533886 11.715180 3.896483 19.033862 60.675548 0.000006 24.640532 -0.000024 0.000000 0.000000 0.000000 
-1.178918 81.282845 0.282026 0.000000 0.000000 0.000000 1.792536 -2.943422 1.092252 -21.451710 -1.340692 8.047635 34.712340 0.033850 -1.630871 1.430751 7.952539 -8.923588 0.000000 0.000000 0.000000 1.792536 -2.943422 1.092252 -9.466325 -4.333934 -9.498911 19.728252 0.532179 0.128748 -11.079953 -11.008103 6.598718 0.000000 0.000000 0.000000 1.792536 -2.943422 1.092252 0.000000 0.000000 0.000000 3.475394 -1.514389 -0.039524 1.629668 -0.448459 -0.153849 0.000000 0.000000 0.000000 1.631972 -0.437754 -0.154194 -1.801188 0.248374 0.027337 0.000000 0.000000 0.000000 1.631972 -0.437754 -0.154194 0.709498 8.143617 -12.975449 11.878147 -9.163501 -54.123314 0.000001 -32.923516 0.000013 0.000000 0.000000 0.000000 1.631972 -0.437754 -0.154194 1.090252 -7.265415 11.796475 4.077676 19.119129 60.423077 0.000007 25.052311 -0.000008 0.000000 0.000000 0.000000 
-1.466763 81.268044 0.224571 0.000000 0.000000 0.000000 1.775756 -3.140823 1.431726 -20.560191 1.129400 7.606617 33.576291 0.248204 -1.636529 -0.515713 5.628328 -7.809622 0.000000 0.000000 0.000000 1.775756 -3.140823 1.431726 -9.942708 -4.072904 -9.614411 20.595261 0.759624 0.143009 -11.533422 -11.192255 6.299892 0.000000 0.000000 0.000000 1.775756 -3.140823 1.431726 0.000000 0.000000 0.000000 3.779543 -1.866007 -0.357259 1.297265 -0.529577 -0.216042 0.000000 0.000000 0.000000 1.299993 -0.520886 -0.215222 -1.452505 0.299958 0.044722 0.000000 0.000000 0.000000 1.299993 -0.520886 -0.215222 0.702417 7.944984 -12.955605 12.132217 -9.857727 -54.116914 0.000001 -32.955096 -0.000002 0.000000 0.000000 0.000000 1.299993 -0.520886 -0.215222 1.088586 -6.982309 11.896794 4.287066 19.240402 60.112905 0.000007 25.493329 -0.000001 0.000000 0.000000 0.000000 
-1.691610 81.309189 0.167246 0.000000 0.000000 0.000000 1.763245 -3.397072 1.784328 -17.612387 3.746473 6.671455 29.795235 1.191575 -1.631540 -4.882230 3.570984 -5.325487 0.000000 0.000000 0.000000 1.763245 -3.397072 1.784328 -10.228283 -3.919937 -9.784431 20.989603 0.978880 0.132725 -11.716122 -11.229231 6.074999 0.000000 0.000000 0.000000 1.763245 -3.397072 1.784328 0.000000 0.000000 0.000000 4.058107 -2.151407 -0.704476 1.018687 -0.592617 -0.267684 0.000000 0.000000 0.000000 1.021736 -0.585821 -0.265838 -1.140346 0.345855 0.064978 0.000000 0.000000 0.000000 1.021736 -0.585821 -0.265838 0.694784 7.732934 -12.929729 12.398928 -10.575119 -54.098841 0.000015 -33.010823 0.000018 0.000000 0.000000 0.000000 1.021736 -0.585821 -0.265838 1.090790 -6.691036 12.024289 4.521655 19.394199 59.741527 0.000004 25.958035 0.000017 0.000000 0.000000 0.000000 
-1.810580 81.369392 0.112953 0.000000 0.000000 0.000000 1.757343 -3.734378 2.080542 -13.665291 5.996082 5.483944 24.200877 1.915791 -1.620384 -8.262931 1.887006 -3.659693 0.000000 0.000000 0.000000 1.757343 -3.734378 2.080542 -10.429067 -4.007406 -10.014241 21.067433 1.176376 0.087724 -11.690461 -10.941494 5.981169 0.000000 0.000000 0.000000 1.757343 -3.734378 2.080542 0.000000 0.000000 0.000000 4.301870 -2.344207 -1.005615 0.808572 -0.633503 -0.304564 0.000000 0.000000 0.000000 0.811815 -0.628388 -0.301895 -0.879672 0.385959 0.088477 0.000000 0.000000 0.000000 0.811815 -0.628388 -0.301895 0.686118 7.510853 -12.895288 12.690019 -11.309519 -54.065814 -0.000005 -33.098537 -0.000006 0.000000 0.000000 0.000000 0.811815 -0.628388 -0.301895 1.097630 -6.395907 12.183825 4.774873 19.563654 59.312844 -0.000001 26.453937 0.000007 0.000000 0.000000 0.000000 
-1.812362 81.434692 0.054764 0.000000 0.000000 0.000000 1.759624 -4.161464 2.294093 -10.317525 7.557002 4.382748 19.153334 2.541060 -1.623679 -9.727393 0.743945 -2.671034 0.000000 0.000000 0.000000 1.759624 -4.161464 2.294093 -10.614004 -4.452170 -10.319373 20.897329 1.310229 0.006732 -11.477864 -10.153798 6.045053 0.000000 0.000000 0.000000 1.759624 -4.161464 2.294093 0.000000 0.000000 0.000000 4.504420 -2.443512 -1.228561 0.671737 -0.652518 -0.324431 0.000000 0.000000 0.000000 0.675022 -0.648736 -0.321185 -0.676534 0.422152 0.114720 0.000000 0.000000 0.000000 0.675022 -0.648736 -0.321185 0.676019 7.281428 -12.850382 13.022610 -12.059976 -54.009622 -0.000004 -33.224055 0.000015 0.000000 0.000000 0.000000 0.675022 -0.648736 -0.321185 1.108630 -6.097875 12.375792 5.036931 19.717248 58.841520 0.000007 27.000489 -0.000014 0.000000 0.000000 0.000000 
-1.726720 81.424675 -0.031036 0.000000 0.000000 0.000000 1.770325 -4.674207 2.449535 -9.791625 8.281716 4.191567 18.321556 2.911416 -1.683559 -9.697501 0.224853 -2.916505 0.000000 0.000000 0.000000 1.770325 -4.674207 2.449535 -14.374965 -4.798910 -10.246420 25.924895 2.240917 -0.105260 -9.884349 -8.601439 5.268425 0.000000 0.000000 0.000000 1.770325 -4.674207 2.449535 0.000000 0.000000 0.000000 4.660747 -2.473311 -1.395710 0.601840 -0.654456 -0.327797 0.000000 0.000000 0.000000 0.605047 -0.651551 -0.324227 -0.525358 0.457838 0.141748 0.000000 0.000000 0.000000 0.605047 -0.651551 -0.324227 0.664442 7.044720 -12.794988 13.415495 -12.829395 -53.916776 0.000012 -33.387396 0.000030 0.000000 0.000000 0.000000 0.605047 -0.651551 -0.324227 1.122180 -5.794974 12.595358 5.295482 19.812031 58.355231 0.000005 27.621507 -0.000017 0.000000 0.000000 0.000000 
-1.565210 81.396454 -0.123425 0.000000 0.000000 0.000000 1.788225 -5.258955 2.568770 -9.781641 8.555840 4.049177 18.398260 3.433064 -1.743948 -9.745661 0.048243 -3.015552 0.000000 0.000000 0.000000 1.788225 -5.258955 2.568770 -19.218464 -5.332706 -10.072755 32.325834 2.932541 -0.227072 -7.542704 -6.439717 4.027667 0.000000 0.000000 0.000000 1.788225 -5.258955 2.568770 0.000000 0.000000 0.000000 4.771169 -2.470056 -1.531069 0.583779 -0.647437 -0.317726 0.000000 0.000000 0.000000 0.586828 -0.644931 -0.314029 -0.410172 0.496765 0.166155 0.000000 0.000000 0.000000 0.586828 -0.644931 -0.314029 0.651808 6.797963 -12.731532 13.883346 -13.620183 -53.771310 0.000005 -33.579846 0.000005 0.000000 0.000000 0.000000 0.586828 -0.644931 -0.314029 1.135939 -5.484160 12.832957 5.537342 19.801816 57.893660 0.000000 28.335151 -0.000005 0.000000 0.000000 0.000000 
